<svg xmlns:dc="http://purl.org/dc/elements/1.1/" xmlns:cc="http://creativecommons.org/ns#" xmlns:rdf="http://www.w3.org/1999/02/22-rdf-syntax-ns#" xmlns:svg="http://www.w3.org/2000/svg" xmlns="http://www.w3.org/2000/svg" xmlns:sodipodi="http://sodipodi.sourceforge.net/DTD/sodipodi-0.dtd" xmlns:inkscape="http://www.inkscape.org/namespaces/inkscape" viewBox="0 0 32 40.00000125" version="1.1" x="0px" y="0px"><g transform="translate(0,-1020.3622)"><g style="" fill="#000000" fill-opacity="1" stroke="none"><g style="" fill="#000000" fill-opacity="1" stroke="none"><g><g style="" fill="#000000" fill-opacity="1" stroke="none"><g><g transform="translate(-9.4480086e-4,-1.2002565e-6)"><g><path style="color:#000000;font-style:normal;font-variant:normal;font-weight:normal;font-stretch:normal;font-size:medium;line-height:125%;font-family:sans-serif;text-indent:0;text-align:start;text-decoration:none;text-decoration-line:none;text-decoration-style:solid;text-decoration-color:#000000;letter-spacing:0px;word-spacing:0px;text-transform:none;direction:ltr;block-progression:tb;writing-mode:lr-tb;baseline-shift:baseline;text-anchor:start;white-space:normal;clip-rule:nonzero;display:inline;overflow:visible;visibility:visible;opacity:1;isolation:auto;mix-blend-mode:normal;color-interpolation:sRGB;color-interpolation-filters:linearRGB;solid-color:#000000;solid-opacity:1;fill:#000000;fill-opacity:1;fill-rule:nonzero;stroke:none;stroke-width:1;stroke-linecap:round;stroke-linejoin:round;stroke-miterlimit:4;stroke-dasharray:none;stroke-dashoffset:4.0999999;stroke-opacity:1;color-rendering:auto;image-rendering:auto;shape-rendering:auto;text-rendering:auto;enable-background:accumulate" d="M 16 1 C 9.3837195 1 4 6.2772502 4 12.78125 C 4 16.20325 6.9473856 20.60215 9.84375 24.28125 C 12.740114 27.96035 15.65625 30.84375 15.65625 30.84375 A 0.50004998 0.50004998 0 0 0 16.34375 30.84375 C 16.34375 30.84375 19.259886 27.96035 22.15625 24.28125 C 25.052615 20.60215 28 16.20325 28 12.78125 C 28 6.2772502 22.616282 1 16 1 z M 16 2 C 22.086278 2 27 6.8283502 27 12.78125 C 27 15.58785 24.197385 20.03145 21.34375 23.65625 C 18.66617 27.05745 16.320556 29.4268 16 29.75 C 15.678743 29.4261 13.333403 27.05695 10.65625 23.65625 C 7.8026153 20.03145 5 15.58785 5 12.78125 C 5 6.8283502 9.9137229 2 16 2 z M 16 4 C 11.587644 4 8 7.5877001 8 12 C 8 16.4124 11.587644 20 16 20 C 20.412356 20 24 16.4124 24 12 C 24 7.5877001 20.412356 4 16 4 z M 16 5 C 19.871916 5 23 8.1281001 23 12 C 23 15.8719 19.871916 19 16 19 C 12.128084 19 9 15.8719 9 12 C 9 8.1281001 12.128084 5 16 5 z M 11 8 L 11 9 L 11.5 9 L 12.21875 9 L 12.28125 9 L 13.78125 15.1875 C 13.300538 15.438036 12.968737 15.92453 12.96875 16.5 C 12.968732 17.3221 13.64666 18 14.46875 18 C 15.290839 18 15.968768 17.3221 15.96875 16.5 C 15.968754 16.328729 15.929019 16.153797 15.875 16 L 17 16 C 16.946466 16.153177 16.937496 16.329535 16.9375 16.5 C 16.937482 17.3221 17.61541 18 18.4375 18 C 19.25959 18 19.906268 17.3221 19.90625 16.5 C 19.906268 15.700458 19.291346 15.035692 18.5 15 L 14.75 15 L 14.5 14 L 19.1875 14 A 0.50004998 0.50004998 0 0 0 19.6875 13.65625 L 20.96875 9.65625 A 0.50004998 0.50004998 0 0 0 20.5 9 L 13.3125 9 L 13.15625 8.375 A 0.50004998 0.50004998 0 0 0 12.71875 8 L 12.21875 8 L 11.5 8 L 11 8 z M 13.5625 10 L 19.8125 10 L 19.5 11 L 16.375 11 L 16.375 12 L 19.15625 12 L 18.84375 13 L 14.28125 13 L 13.5625 10 z M 14.46875 16 C 14.750125 16 14.968756 16.2181 14.96875 16.5 C 14.968756 16.7819 14.750125 17 14.46875 17 C 14.187375 17 13.968744 16.7819 13.96875 16.5 C 13.968744 16.2181 14.187375 16 14.46875 16 z M 18.4375 16 C 18.718875 16 18.906256 16.2181 18.90625 16.5 C 18.906256 16.7819 18.718875 17 18.4375 17 C 18.156125 17 17.937494 16.7819 17.9375 16.5 C 17.937494 16.2181 18.156125 16 18.4375 16 z " transform="translate(9.4430086e-4,1020.3622)"/></g></g></g></g></g></g></g></g><text x="0" y="47.000001" fill="#000000" font-size="5px" font-weight="bold" font-family="'Helvetica Neue', Helvetica, Arial-Unicode, Arial, Sans-serif">Created by Chameleon Design</text><text x="0" y="52.000001" fill="#000000" font-size="5px" font-weight="bold" font-family="'Helvetica Neue', Helvetica, Arial-Unicode, Arial, Sans-serif">from the Noun Project</text></svg>